<?xml version="1.0" encoding="UTF-8"?>
<svg enable-background="new 0 0 32 32" version="1.1" viewBox="0 0 32 32" xml:space="preserve" xmlns="http://www.w3.org/2000/svg">
<style type="text/css">
    .st0{fill:#FFFFFF;}
    .st1{fill:#58585A;}
</style>
<circle class="st0" cx="15.7" cy="15.3" r="13.9"/>
<path class="st1" d="m13.2 6.3z"/>
<path class="st1" d="m15.6 1c-7.8 0-14.1 6.4-14.1 14.2s6.4 14.2 14.2 14.2 14.2-6.4 14.2-14.2c-0.1-7.8-6.5-14.2-14.3-14.2zm13 14.2v0.7c-0.1-0.2-0.2-0.5-0.3-0.7 0-0.2-0.3-0.9-0.3-0.9s-0.3-0.4-0.5-0.5-0.3-0.3-0.7-0.5c-0.3-0.2-0.5-0.3-0.8-0.3s-0.6-0.4-0.9-0.6-0.4-0.1-0.4-0.1 0.3 0.7 0.3 0.8 0.4 0.4 0.9 0.3c0 0 0.3 0.5 0.4 0.7s0 0.3-0.3 0.5-0.2 0.1-0.4 0.3c-0.1 0.1-0.6 0.4-0.8 0.5-0.1 0.1-0.7 0.4-1 0.1-0.1-0.1-0.1-0.4-0.2-0.6s-1.1-1.7-1.6-2.4c-0.1-0.1-0.3-0.5-0.4-0.6s0.3-0.1 0.3-0.1 0-0.3 0-0.6v-0.6s-0.5 0.3-0.6 0.4-0.3-0.2-0.5-0.4-0.4-0.5-0.4-0.8c0-0.2 0.2-0.3 0.2-0.3l0.4-0.3s0.5-0.1 0.9 0c0.3 0 0.9 0.1 0.9 0.1s0.1-0.3 0-0.5c-0.2-0.1-0.6-0.4-0.8-0.3-0.2 0 0.1-0.2 0.3-0.4l-0.5-0.1s-0.5 0.2-0.6 0.3c-0.1 0-0.4 0.1-0.6 0.4-0.2 0.2 0.1 0.6-0.1 0.7s-0.3 0.1-0.5 0.2h-0.6c-0.5 0-0.2 0.5 0 0.6l-0.4-0.5-0.3-0.7s-0.4-0.3-0.6-0.4l-0.8-0.4v0.4l0.6 0.6 0.3 0.4h-0.6v-0.5c-0.8-0.1-0.6-0.3-0.7-0.3-0.1-0.1-0.5-0.3-0.5-0.3s-0.6 0.1-0.7 0.1-0.2 0.2-0.5 0.3c-0.2 0.1-0.4 0.2-0.5 0.4s-0.4 0.6-0.6 0.8-0.6 0.1-0.7 0.1-0.9-0.2-0.9-0.2v-0.8s0.1-0.5 0-0.6l0.5-0.1 0.7-0.1 0.3-0.2 0.3-0.4s-0.3-0.2-0.1-0.6c0.1-0.2 0.5-0.2 0.7-0.3s0.5-0.2 0.5-0.2 0.3-0.3 0.7-0.6c0 0 0.2-0.1 0.5-0.2 0 0 0.8 0.7 1 0.7s0.7-0.3 0.7-0.3 0.1-0.4 0.1-0.6c0-0.1-0.3-0.6-0.3-0.6s-0.1 0.2-0.3 0.4-0.2 0.4-0.2 0.4-0.7 0-0.7-0.2c0-0.1-0.1-0.4-0.2-0.5 0-0.1-0.4-0.1-0.7 0s0-0.5 0-0.5 0.3-0.4 0.5-0.4 0.6-0.2 0.8-0.3c0.2 0 0.8-0.3 1-0.3s0.5 0.1 0.7 0.1 0.7 0 0.7 0l1-0.1s0.9 0.3 0.6 0.5c0 0 0.3 0.2 0.5 0.4 0.1 0.1 0.5-0.1 0.7-0.2 3.6 2.1 6.1 6.2 6.1 10.8zm-23.3-7.6c0 0.2-0.3 0.2 0 0.7 0.3 0.6 0 0.9 0 0.9s-0.8 0.6-1 0.7-0.5 0.6-0.3 0.5 0.5-0.3 0.3 0.1-0.7 1-0.8 1.3-0.5 0.8-0.5 1.1-0.2 0.9-0.1 1.1c0 0.2-0.1 0.7-0.2 0.9 0.1-2.8 1-5.3 2.6-7.3zm1.6-1.9c1.2-1.1 2.6-2 4.1-2.6-0.2 0.2-0.3 0.4-0.3 0.4s-0.3 0-1 0.7c-0.6 0.7-0.5 0.5-0.6 0.7s-0.1 0.2-0.5 0.5c-0.3 0.2-0.5 0.5-0.5 0.5l-0.5 0.2-0.5-0.2s-0.4 0.1-0.3 0c0-0.1 0-0.1 0.1-0.2zm5.8 1.1l-0.2-0.3 0.2-0.4 0.5 0.2v-0.9l0.4-0.2 0.4 0.5 0.6 0.6-0.4 0.3-1 0.2v-0.5l-0.5 0.5zm6.4 4.6c0.1-0.1 0.5 0.1 0.5 0.1s1.2 0.2 1.4 0.4c0.2 0.1 0.5 0.2 0.6 0.4 0.1 0.1 0.4 0.6 0.5 0.7 0 0.1 0.3 0.7 0.3 0.9s0.2 0.7 0.3 0.9 1 1.3 1.3 1.8l0.9-0.1s-0.1 0.4-0.2 0.6c-0.1 0.1-0.4 0.5-0.5 0.7s-0.3 0.5-0.6 0.7-0.3 0.5-0.4 0.7l-0.3 0.6s0.1 1 0.1 1.2-0.3 0.7-0.3 0.7l-0.4 0.4-0.8 0.9v0.7s-0.4 0.3-0.7 0.5c-0.2 0.2-0.2 0.3-0.4 0.5s-1 0.5-1.2 0.6-1.3 0.2-1.3 0.2v-0.9s-0.1-0.6-0.3-0.8-0.1-0.5-0.3-0.7-0.3-0.4-0.4-0.6c0-0.1 0.1-0.6 0.1-0.6s0.2-0.5 0.3-0.7 0-0.5-0.1-0.7-0.1-0.7-0.1-0.8-0.4-0.4-0.5-0.5-0.1-0.3-0.1-0.5-0.1-0.6-0.1-1c0-0.3-0.4-0.1-0.7 0s-0.5-0.1-0.5-0.4-0.5 0-0.9 0.1c-0.3 0.2-0.7 0.2-1.1 0.3s-0.6-0.1-0.6-0.1-0.3-0.3-0.6-0.4c-0.2-0.1-0.5-0.4-0.7-0.7-0.2-0.2-0.7-1-0.7-1.3v-0.8-0.8c0-0.2 0.2-0.5 0.3-0.8 0.1-0.2 0.7-0.5 0.8-0.6s0.5-0.4 0.5-0.6 0.2-0.3 0.3-0.5 0.4-0.7 0.9-0.5c0 0 0.4 0 0.5-0.1s0.5-0.2 0.7-0.3 0.7-0.1 0.7-0.1 0.4 0.2 0.5 0.2 0.6-0.1 0.6-0.1 0.2 0.7 0.2 0.9 0.1 0.3 0.4 0.4c0.4 0.1 1.6 0.3 2.1-0.1zm5.6 9.6c0 0.1 0 0.5-0.1 0.7s-0.1 0.5-0.2 0.7c0 0.2-0.3 0.6-0.4 0.7s-0.4 0.4-0.5 0.4-0.2-0.3-0.2-0.5 0.3-0.7 0.3-0.7 0-0.3 0.1-0.5c0-0.2 0.6-0.4 0.6-0.4l0.4-0.7c-0.1-0.1 0 0.1 0 0.3zm-21.7-2.9c0.1 0 0.2 0.1 0.3 0.2 0.2 0.2 0.3 0.2 0.5 0.3s0.3 0.2 0.6 0.4 0.2 0 0.6 0.5c0.4 0.4 0.3 0.4 0.4 0.7s0.2 0.5 0.3 0.6 0.4 0.2 0.5 0.3 0.4 0.2 0.5 0.2 0.6 0.4 0.8 0.5c0.5 0.1 0.5 0.5 0.5 0.5l-0.3 0.7-0.2 0.7 0.2 0.6s-0.3 0.2-0.5 0.2-0.2 0.1-0.4 0.1c-1.9-1.7-3.2-4-3.8-6.5z"/>
</svg>
