<?xml version="1.0" encoding="UTF-8"?>
<!DOCTYPE svg  PUBLIC '-//W3C//DTD SVG 1.1//EN'  'http://www.w3.org/Graphics/SVG/1.1/DTD/svg11.dtd'>
<svg enable-background="new 0 0 516.745 79.084" version="1.1" viewBox="0 0 516.745 79.084" xml:space="preserve" xmlns="http://www.w3.org/2000/svg">
<g fill="#fff">
	<path d="m303.96 21.379v-20.304h3.88v20.304h-3.88z"/>
	<path d="m310.68 21.379v-15.298h3.431v1.743c1.293-1.125 2.503-2.024 3.965-2.024 2.166 0 3.291 1.097 3.291 3.937v11.643h-3.544v-11.25c0-1.012-0.337-1.688-1.294-1.688-0.73 0-1.547 0.703-2.306 1.378v11.559h-3.543z"/>
	<path d="m329.84 3.887h-1.012c-0.844 0-1.209 0.534-1.209 1.294v1.575h2.109v2.868h-2.109v11.755h-3.543v-11.755h-1.604v-2.868h1.604v-1.463c0-3.543 1.49-4.499 4.077-4.499 0.506 0 1.097 0.084 1.687 0.168v2.925z"/>
	<path d="m330.65 11.593c0-4.05 2.08-5.793 5.623-5.793 3.544 0 5.625 1.743 5.625 5.793v4.274c0 4.05-2.081 5.793-5.625 5.793-3.543 0-5.623-1.743-5.623-5.793v-4.274zm3.543 5.174c0 1.182 0.844 1.8 2.08 1.8 1.238 0 2.082-0.618 2.082-1.8v-6.074c0-1.181-0.844-1.8-2.082-1.8-1.236 0-2.08 0.619-2.08 1.8v6.074z"/>
	<path d="m344.15 21.379v-15.298h3.459v2.024h0.056c0.816-1.519 1.885-2.306 3.656-2.306v3.824c-0.59-0.169-1.266-0.394-1.885-0.394-1.152 0-1.743 0.871-1.743 1.688v10.461h-3.543z"/>
	<path d="m352.7 6.081h3.432v1.743c1.152-1.041 2.306-2.024 3.796-2.024 1.321 0 2.278 0.899 2.7 2.306 1.096-1.209 2.221-2.306 3.768-2.306 2.138 0 3.234 1.293 3.234 4.049v11.53h-3.543v-11.643c0-1.013-0.365-1.294-0.928-1.294-0.676 0-1.772 0.788-2.223 1.378v11.559h-3.543v-11.643c0-1.013-0.394-1.294-0.956-1.294-0.759 0-1.772 0.788-2.194 1.378v11.559h-3.543v-15.298z"/>
	<path d="m372.65 3.438v-3.207h3.543v3.206h-3.543zm3.543 2.643v15.298h-3.543v-15.298h3.543z"/>
	<path d="m379.2 21.379v-15.298h3.431v1.743c1.293-1.125 2.503-2.024 3.965-2.024 2.166 0 3.291 1.097 3.291 3.937v11.643h-3.544v-11.25c0-1.012-0.337-1.688-1.294-1.688-0.73 0-1.547 0.703-2.306 1.378v11.559h-3.543z"/>
	<path d="m404.18 8.893c-0.281-0.056-0.816-0.225-1.098-0.225-0.365 0-0.73 0.196-1.209 0.337 0.225 1.013 0.45 1.772 0.45 2.7 0 3.824-1.632 6.018-5.118 6.018-0.506 0-0.928-0.027-1.463-0.196-0.196 0.281-0.618 0.534-0.618 0.899 0 1.913 8.886-1.04 8.886 4.5 0 2.615-2.699 3.853-6.805 3.853-3.769 0-5.85-1.068-5.85-2.784 0-1.153 1.293-1.855 2.137-2.391-0.844-0.506-1.462-1.181-1.462-2.165 0-1.209 1.266-2.024 2.138-2.559-1.716-1.125-2.307-2.757-2.307-5.315 0-3.29 1.266-5.765 5.23-5.765 1.463 0 3.094 0.675 3.994 1.771 0.9-1.125 1.771-1.771 3.094-1.771v3.093zm-8.719 13.161c-0.365 0.365-0.73 0.675-0.73 1.237 0 0.788 1.152 1.125 3.234 1.125 1.687 0 2.671-0.422 2.671-1.209 0-0.507-0.226-0.731-1.294-0.815l-3.881-0.338zm1.631-13.386c-1.35 0-1.855 0.928-1.855 3.318 0 1.912 0.619 2.868 1.688 2.868 1.519 0 2.024-0.563 2.024-3.234-1e-3 -1.968-0.619-2.952-1.857-2.952z"/>
</g>
<g fill="#fff">
	<path d="m303.68 34.208h3.431v1.744c1.152-1.041 2.307-2.024 3.797-2.024 1.321 0 2.277 0.899 2.699 2.306 1.097-1.209 2.222-2.306 3.769-2.306 2.138 0 3.233 1.293 3.233 4.049v11.53h-3.543v-11.643c0-1.013-0.365-1.294-0.928-1.294-0.676 0-1.771 0.788-2.222 1.378v11.559h-3.544v-11.643c0-1.013-0.393-1.294-0.955-1.294-0.76 0-1.772 0.788-2.194 1.378v11.559h-3.543v-15.299z"/>
	<path d="m322.89 39.721c0-4.05 2.081-5.793 5.624-5.793s5.625 1.743 5.625 5.793v4.274c0 4.05-2.082 5.793-5.625 5.793s-5.624-1.743-5.624-5.793v-4.274zm3.544 5.174c0 1.182 0.843 1.8 2.08 1.8 1.238 0 2.081-0.618 2.081-1.8v-6.075c0-1.181-0.843-1.8-2.081-1.8-1.237 0-2.08 0.619-2.08 1.8v6.075z"/>
	<path d="m336.39 49.507v-15.299h3.459v2.025h0.057c0.815-1.519 1.885-2.306 3.656-2.306v3.824c-0.591-0.169-1.266-0.394-1.885-0.394-1.152 0-1.744 0.871-1.744 1.688v10.461h-3.543z"/>
	<path d="m348.2 42.701v2.025c0 1.519 0.9 2.193 2.082 2.193 1.49 0 2.08-0.956 2.08-2.138h3.544c-0.169 3.149-2.053 5.006-5.624 5.006-3.375 0-5.625-2.081-5.625-5.428v-5.006c0-3.346 2.25-5.427 5.625-5.427 3.29 0 5.624 2.081 5.624 5.202v3.571h-7.706zm4.162-2.868v-0.844c0-1.35-0.646-2.193-2.08-2.193-1.435 0-2.082 0.844-2.082 2.193v0.844h4.162z"/>
	<path d="m368.45 42.701v2.025c0 1.519 0.9 2.193 2.082 2.193 1.49 0 2.08-0.956 2.08-2.138h3.544c-0.169 3.149-2.053 5.006-5.624 5.006-3.375 0-5.625-2.081-5.625-5.428v-5.006c0-3.346 2.25-5.427 5.625-5.427 3.29 0 5.624 2.081 5.624 5.202v3.571h-7.706zm4.162-2.868v-0.844c0-1.35-0.646-2.193-2.08-2.193-1.435 0-2.082 0.844-2.082 2.193v0.844h4.162z"/>
	<path d="m384.32 32.015h-1.013c-0.844 0-1.209 0.534-1.209 1.294v1.575h2.109v2.868h-2.109v11.755h-3.543v-11.755h-1.604v-2.868h1.604v-1.463c0-3.543 1.49-4.499 4.078-4.499 0.506 0 1.096 0.084 1.687 0.168v2.925z"/>
	<path d="m391.32 32.015h-1.013c-0.844 0-1.21 0.534-1.21 1.294v1.575h2.109v2.868h-2.109v11.755h-3.543v-11.755h-1.603v-2.868h1.603v-1.463c0-3.543 1.49-4.499 4.078-4.499 0.506 0 1.097 0.084 1.688 0.168v2.925z"/>
	<path d="m395.68 42.701v2.025c0 1.519 0.9 2.193 2.082 2.193 1.49 0 2.08-0.956 2.08-2.138h3.544c-0.169 3.149-2.053 5.006-5.624 5.006-3.375 0-5.625-2.081-5.625-5.428v-5.006c0-3.346 2.25-5.427 5.625-5.427 3.29 0 5.624 2.081 5.624 5.202v3.571h-7.706zm4.162-2.868v-0.844c0-1.35-0.646-2.193-2.08-2.193-1.435 0-2.082 0.844-2.082 2.193v0.844h4.162z"/>
	<path d="m413.09 39.495v-0.675c0-1.181-0.843-1.8-2.08-1.8-1.238 0-2.082 0.619-2.082 1.8v6.074c0 1.182 0.844 1.8 2.082 1.8 1.237 0 2.08-0.618 2.08-1.8v-0.956h3.544v0.057c0 4.05-2.081 5.793-5.624 5.793s-5.625-1.743-5.625-5.793v-4.274c0-4.05 2.082-5.793 5.625-5.793 3.459 0 5.539 1.687 5.596 5.567h-3.516z"/>
	<path d="m417.4 37.752v-2.868h1.406v-4.162h3.543v4.162h2.277v2.868h-2.277v7.817c0 0.76 0.646 1.125 1.604 1.125 0.252 0 0.478 0 0.703-0.027v2.98c-0.676 0.112-1.351 0.141-2.025 0.141-2.307 0-3.824-0.844-3.824-3.037v-8.999h-1.407z"/>
	<path d="m426.34 31.565v-3.206h3.544v3.206h-3.544zm3.544 2.643v15.299h-3.544v-15.299h3.544z"/>
	<path d="m437.42 44.051h0.057l2.334-9.843h3.543l-4.161 15.299h-3.487l-4.162-15.299h3.543l2.333 9.843z"/>
	<path d="m447.83 42.701v2.025c0 1.519 0.9 2.193 2.08 2.193 1.491 0 2.082-0.956 2.082-2.138h3.543c-0.168 3.149-2.053 5.006-5.625 5.006-3.374 0-5.623-2.081-5.623-5.428v-5.006c0-3.346 2.249-5.427 5.623-5.427 3.291 0 5.625 2.081 5.625 5.202v3.571h-7.705zm4.162-2.868v-0.844c0-1.35-0.646-2.193-2.082-2.193-1.434 0-2.08 0.844-2.08 2.193v0.844h4.162z"/>
</g>
<g fill="#fff">
	<path d="m303.68 77.636v-20.304h3.543v6.749c1.181-1.125 2.391-2.024 3.853-2.024 2.166 0 3.291 1.097 3.291 3.937v11.643h-3.544v-11.25c0-1.012-0.337-1.688-1.294-1.688-0.73 0-1.547 0.703-2.306 1.378v11.559h-3.543z"/>
	<path d="m327.61 62.337v15.299h-3.432v-1.743c-1.293 1.124-2.502 2.024-3.965 2.024-2.166 0-3.29-1.097-3.29-3.938v-11.642h3.543v11.249c0 1.013 0.338 1.688 1.294 1.688 0.73 0 1.547-0.703 2.306-1.378v-11.559h3.544z"/>
	<path d="m330.15 62.337h3.432v1.744c1.152-1.041 2.306-2.024 3.796-2.024 1.321 0 2.278 0.899 2.7 2.306 1.096-1.209 2.221-2.306 3.768-2.306 2.138 0 3.234 1.293 3.234 4.049v11.53h-3.543v-11.643c0-1.013-0.365-1.294-0.928-1.294-0.676 0-1.772 0.788-2.223 1.378v11.559h-3.543v-11.643c0-1.013-0.394-1.294-0.956-1.294-0.759 0-1.772 0.788-2.194 1.378v11.559h-3.543v-15.299z"/>
	<path d="m349.3 66.809c0.14-1.715 0.843-2.896 1.883-3.655 1.014-0.76 2.391-1.097 3.797-1.097 3.769 0 5.203 1.912 5.203 4.64v9.702c0 0.422 0.084 0.844 0.196 1.237h-3.543c-0.085-0.394-0.141-0.872-0.253-1.49-1.041 1.04-2.447 1.771-4.219 1.771-2.137 0-3.516-1.182-3.516-3.656 0-3.543 3.375-5.062 7.79-6.384v-1.124c0-1.322-0.815-1.828-1.827-1.828-1.069 0-1.969 0.787-1.969 1.884h-3.542zm7.339 3.346c-2.108 0.731-4.246 1.912-4.246 3.516 0 1.012 0.618 1.603 1.575 1.603 1.068 0 1.828-0.563 2.671-1.406v-3.713z"/>
	<path d="m362.89 77.636v-15.299h3.431v1.744c1.293-1.125 2.503-2.024 3.965-2.024 2.166 0 3.291 1.097 3.291 3.937v11.643h-3.544v-11.25c0-1.012-0.337-1.688-1.294-1.688-0.73 0-1.547 0.703-2.306 1.378v11.559h-3.543z"/>
	<path d="m376.58 59.694v-3.206h3.543v3.206h-3.543zm3.543 2.643v15.299h-3.543v-15.299h3.543z"/>
	<path d="m381.59 65.881v-2.868h1.405v-4.162h3.544v4.162h2.277v2.868h-2.277v7.817c0 0.76 0.646 1.125 1.603 1.125 0.253 0 0.478 0 0.703-0.027v2.98c-0.675 0.112-1.351 0.141-2.024 0.141-2.307 0-3.825-0.844-3.825-3.037v-8.999h-1.406z"/>
	<path d="m389.78 66.809c0.14-1.715 0.843-2.896 1.883-3.655 1.014-0.76 2.391-1.097 3.797-1.097 3.769 0 5.203 1.912 5.203 4.64v9.702c0 0.422 0.084 0.844 0.196 1.237h-3.543c-0.085-0.394-0.141-0.872-0.253-1.49-1.041 1.04-2.447 1.771-4.219 1.771-2.137 0-3.516-1.182-3.516-3.656 0-3.543 3.375-5.062 7.79-6.384v-1.124c0-1.322-0.815-1.828-1.827-1.828-1.069 0-1.969 0.787-1.969 1.884h-3.542zm7.339 3.346c-2.108 0.731-4.246 1.912-4.246 3.516 0 1.012 0.618 1.603 1.575 1.603 1.068 0 1.828-0.563 2.671-1.406v-3.713z"/>
	<path d="m403.36 77.636v-15.299h3.459v2.025h0.056c0.816-1.519 1.885-2.306 3.656-2.306v3.824c-0.59-0.169-1.266-0.394-1.885-0.394-1.152 0-1.743 0.871-1.743 1.688v10.461h-3.543z"/>
	<path d="m412.36 59.694v-3.206h3.544v3.206h-3.544zm3.544 2.643v15.299h-3.544v-15.299h3.544z"/>
	<path d="m418.58 66.809c0.14-1.715 0.843-2.896 1.883-3.655 1.014-0.76 2.391-1.097 3.797-1.097 3.769 0 5.203 1.912 5.203 4.64v9.702c0 0.422 0.084 0.844 0.196 1.237h-3.543c-0.085-0.394-0.141-0.872-0.253-1.49-1.041 1.04-2.447 1.771-4.219 1.771-2.137 0-3.516-1.182-3.516-3.656 0-3.543 3.375-5.062 7.79-6.384v-1.124c0-1.322-0.815-1.828-1.827-1.828-1.069 0-1.969 0.787-1.969 1.884h-3.542zm7.339 3.346c-2.108 0.731-4.246 1.912-4.246 3.516 0 1.012 0.618 1.603 1.575 1.603 1.068 0 1.828-0.563 2.671-1.406v-3.713z"/>
	<path d="m432.17 77.636v-15.299h3.431v1.744c1.293-1.125 2.503-2.024 3.965-2.024 2.166 0 3.291 1.097 3.291 3.937v11.643h-3.544v-11.25c0-1.012-0.337-1.688-1.294-1.688-0.73 0-1.547 0.703-2.306 1.378v11.559h-3.543z"/>
	<path d="m452.05 66.809c0.14-1.715 0.843-2.896 1.883-3.655 1.014-0.76 2.391-1.097 3.797-1.097 3.769 0 5.203 1.912 5.203 4.64v9.702c0 0.422 0.084 0.844 0.196 1.237h-3.543c-0.085-0.394-0.141-0.872-0.253-1.49-1.041 1.04-2.447 1.771-4.219 1.771-2.137 0-3.516-1.182-3.516-3.656 0-3.543 3.375-5.062 7.79-6.384v-1.124c0-1.322-0.815-1.828-1.827-1.828-1.069 0-1.969 0.787-1.969 1.884h-3.542zm7.339 3.346c-2.108 0.731-4.246 1.912-4.246 3.516 0 1.012 0.618 1.603 1.575 1.603 1.068 0 1.828-0.563 2.671-1.406v-3.713z"/>
	<path d="m473.06 67.624v-0.675c0-1.181-0.843-1.8-2.081-1.8-1.237 0-2.08 0.619-2.08 1.8v6.074c0 1.182 0.843 1.8 2.08 1.8 1.238 0 2.081-0.618 2.081-1.8v-0.956h3.544v0.057c0 4.05-2.082 5.793-5.625 5.793s-5.624-1.743-5.624-5.793v-4.274c0-4.05 2.081-5.793 5.624-5.793 3.459 0 5.54 1.687 5.597 5.567h-3.516z"/>
	<path d="m477.34 65.881v-2.868h1.405v-4.162h3.544v4.162h2.277v2.868h-2.277v7.817c0 0.76 0.646 1.125 1.603 1.125 0.253 0 0.478 0 0.703-0.027v2.98c-0.675 0.112-1.351 0.141-2.024 0.141-2.307 0-3.825-0.844-3.825-3.037v-8.999h-1.406z"/>
	<path d="m486.31 59.694v-3.206h3.544v3.206h-3.544zm3.543 2.643v15.299h-3.544v-15.299h3.544z"/>
	<path d="m492.56 67.85c0-4.05 2.081-5.793 5.624-5.793 3.544 0 5.624 1.743 5.624 5.793v4.274c0 4.05-2.08 5.793-5.624 5.793-3.543 0-5.624-1.743-5.624-5.793v-4.274zm3.543 5.173c0 1.182 0.844 1.8 2.081 1.8s2.081-0.618 2.081-1.8v-6.074c0-1.181-0.844-1.8-2.081-1.8s-2.081 0.619-2.081 1.8v6.074z"/>
	<path d="m506.06 77.636v-15.299h3.43v1.744c1.294-1.125 2.504-2.024 3.966-2.024 2.165 0 3.29 1.097 3.29 3.937v11.643h-3.543v-11.25c0-1.012-0.338-1.688-1.294-1.688-0.731 0-1.547 0.703-2.306 1.378v11.559h-3.543z"/>
</g>
<g fill="#fff">
	<path d="M34.533,78.019l-12.79-31.335h-7.035v31.335H0V1.065h21.317c17.692,0,26.113,8.527,26.113,23.022   c0,9.593-3.411,16.521-11.618,19.611l14.495,34.319H34.533z M14.708,34.533h7.567c6.501,0,10.445-3.198,10.445-10.658   c0-7.461-3.944-10.659-10.445-10.659h-7.567V34.533z"/>
	<path d="M59.258,78.019V1.065h40.289v13.004h-25.58v17.692h19.505v13.003H73.966v20.251h26.646v13.003H59.258z"/>
	<path d="m107.32 78.019l19.078-76.953h18.865l18.545 76.953h-14.069l-3.73-16.2h-20.357l-4.157 16.2h-14.175zm20.996-29.205h14.602l-7.141-31.122h-0.213l-7.248 31.122z"/>
	<path d="m185.23 55.21c0 8.526 3.73 10.871 9.592 10.871s9.593-2.345 9.593-10.871v-5.116h14.708v3.197c0 18.972-10.019 25.793-24.301 25.793s-24.301-6.821-24.301-25.793v-27.498c1e-3 -18.972 10.019-25.793 24.302-25.793s24.301 6.821 24.301 25.793v0.213h-14.708v-2.131c0-8.527-3.73-10.872-9.593-10.872-5.862 0-9.592 2.345-9.592 10.872v31.335z"/>
	<path d="M231.916,78.019V1.065h14.708v30.696h20.784V1.065h14.709v76.953h-14.709V44.765h-20.784v33.254H231.916z"/>
</g>
</svg>
