<?xml version="1.0" encoding="utf-8"?>
<!DOCTYPE svg PUBLIC "-//W3C//DTD SVG 1.1//EN" "http://www.w3.org/Graphics/SVG/1.1/DTD/svg11.dtd">
<svg version="1.1" xmlns="http://www.w3.org/2000/svg" xmlns:xlink="http://www.w3.org/1999/xlink" x="0px" y="0px" viewBox="0 0 800 193" enable-background="new 0 0 800 193" xml:space="preserve">

		<g>
				<path fill="#FFFFFF" d="M117.6,130.5c2.3,0,2-1.3,2-3.7v-11.7c0-2.4-0.2-3.2,1.2-3.2c4.8,0,6.1-0.4,6.1-4.7V63.9
					c0-11.8-8.3-9.8-10.7-14.2c-3.3-5.8,6.2-5.8,2.8-18.5c-0.9-2.9-3.1-4.6-7.5-4.6s-6.6,1.8-7.5,4.6c-3.5,12.6,6.1,12.6,2.8,18.5
					c-2.4,4.3-10.7,2.4-10.7,14.2v43.3c0,4.3,1.3,4.7,6.1,4.7c1.3,0,1.1,0.8,1.1,3.2v11.7c0,2.4-0.3,3.7,2,3.7H117.6"/>
				<path fill="#FFFFFF" d="M79.7,36.5c-4.3,4.5-11,15.1-6.6,23.9c8.9,3.4,8.3-28.3,19.4-27.8c5.5,5.1-1.6,20.1-3.9,26.7
					c-2.7,8.1-4.9,25.2-10.2,33.4c-4.4,6.9-1.1,28.5-2.5,35.9c-3.7,3.7-13.7,1.1-18,0.4c0-8.5-1.1-15.3-2.5-28.9
					c-0.1-2.7-3-44.8-0.7-49.9c4.8-10.6,31.1-30.8,34.7-34.6c3.1-3.4,14.3-14.8,18.5-14.8c3,2.1,1.2,6.9,0.6,8.8
					C104.3,20.1,85.9,30.6,79.7,36.5"/>
				<path fill="#FFFFFF" d="M143.8,36.5c4.1,4.5,10.9,15.1,6.6,23.9c-9.1,3.4-8.4-28.3-19.5-27.8c-5.3,5.1,1.8,20.1,4,26.7
					c2.8,8.1,5,25.2,10.2,33.4c4.3,6.9,1.1,28.5,2.3,35.9c3.9,3.7,13.7,1.1,18.1,0.4c0-8.5,1-15.3,2.3-28.9
					c0.3-2.7,3.2-44.8,0.8-49.9c-4.8-10.6-31.1-30.8-34.6-34.6c-3.3-3.4-14.3-14.8-18.6-14.8c-3.1,2.1-1.2,6.9-0.5,8.8
					C119.2,20.1,137.6,30.6,143.8,36.5"/>
				<path fill="#FFFFFF" d="M41.5,22.2c-2.3,2.2-7.6,3.7-11.2,8.5c-1.4-2.6,2.2-8.9,6.5-12.7c3.2-2.6,9.4-6.9,11.1-7.3
					C49.4,14,44.4,18.8,41.5,22.2"/>
				<path fill="#FFFFFF" d="M34.2,39.5c-4,3.7-8.2,5.2-13.8,12c-2.3-8.1-1.8-15.3-0.7-20.1C21.7,25,24.9,18,30.2,15.8
					c-1.1,3.6-2.9,8.5-3.3,15.3c-2.3,9.2-3.7,9.5-3.2,10.7c0.5,0,3.6-4.8,7.3-8.5c4.4-4.4,9.9-5.4,13.5-8
					C44,27.1,40.8,32.7,34.2,39.5"/>
				<path fill="#FFFFFF" d="M14.8,77.6C9.4,68,8.9,60.9,8.5,52.8c0.3-5.6,3-18.7,7.2-20.6c-1.2,11.8,1.9,12.9,0.7,22.7
					c0,0.5-1.4,10.8-1.4,11.3c1.7-0.3,0.1-9.4,19-22.5c-4.1,7.2-2.2,9.4-9.6,18.9C15.6,71.1,14.4,79.5,14.8,77.6"/>
				<path fill="#FFFFFF" d="M22.4,86.7c-4,5.8-3.3,8.7-4.3,11.4C8.6,92.6-2.1,70.7,1.9,59.9c2.5,8.3,5.9,10,8.4,16.9
					c4.3,10.3,3.6,13.5,6.3,15.8c-0.6-5.4,1.2-11.7,3-16.4c2.6-4,4.7-9.2,6.6-11C28.3,72.8,26.8,79,22.4,86.7"/>
				<path fill="#FFFFFF" d="M30.9,105.4c0,8.4-1.5,12.1-2.2,18.3C12.3,118.4,3.8,99.7,3.8,90.4c5,11.3,12.3,11.2,21.8,27.1
					c0.8-6.1-1.7-1.5-1.9-12.9c0.3-12,2.8-12.4,3.2-19.8C29.8,88.1,30.9,101.3,30.9,105.4"/>
				<path fill="#FFFFFF" d="M44.6,129.3c1.2,6.2,1.8,13.5,2.8,18.9c-9.4-3.4-11.7-0.8-22.9-7.9c-5.1-2.8-14.2-14.3-13.6-22.6
					c11,12.3,12.9,10.9,18.3,15.4c5,4,8.9,9.9,12.5,9.1c0.3-3.3-8.1-10.5-7-31.1C36.8,113.4,42.9,122.8,44.6,129.3"/>
				<path fill="#FFFFFF" d="M63.1,144.7c2.9,4.1,2.2,5.9,9.7,14.5c-1.8,0.8-12.4,3.6-19.4,3.9c-4.7,0-21.2-4.4-26.7-15.7
					c9.5,5.1,9.6,3.9,22.3,6.6c9.1,2.1,15.6,5,18.1,4.7c-0.5-1.2-7.6-4.1-12.4-10.2c-4.8-6.5-3.7-13.8-8-19.2
					C49.5,128.4,60.8,141.7,63.1,144.7"/>
				<path fill="#FFFFFF" d="M181.2,22.2c2.2,2.2,7.6,3.7,11,8.5c1.5-2.6-2.2-8.9-6.5-12.7c-3-2.6-9.2-6.9-11.2-7.3
					C173.2,14,178.2,18.8,181.2,22.2"/>
				<path fill="#FFFFFF" d="M188.5,39.5c3.9,3.7,8.1,5.2,13.6,12c2.3-8.1,1.8-15.3,0.7-20.1C201,25,197.7,18,192.3,15.8
					c1.2,3.6,2.9,8.5,3.3,15.3c2.3,9.2,3.7,9.5,3.2,10.7c-0.5,0-3.6-4.8-7.3-8.5c-4.3-4.4-9.8-5.4-13.5-8
					C178.6,27.1,181.9,32.7,188.5,39.5"/>
				<path fill="#FFFFFF" d="M207.8,77.6c5.5-9.6,5.9-16.7,6.3-24.8c-0.3-5.6-3-18.7-7-20.6c1.1,11.8-2.1,12.9-0.7,22.7
					c0,0.5,1.2,10.8,1.2,11.3c-1.5-0.3-0.1-9.4-18.9-22.5c4,7.2,2.1,9.4,9.5,18.9C207.1,71.1,208.2,79.5,207.8,77.6"/>
				<path fill="#FFFFFF" d="M200.3,86.7c3.9,5.8,3.2,8.7,4.1,11.4c9.5-5.5,20.4-27.4,16.2-38.3c-2.3,8.3-5.9,10-8.3,16.9
					c-4.4,10.3-3.7,13.5-6.3,15.8c0.5-5.4-1.4-11.7-3.2-16.4c-2.5-4-4.7-9.2-6.6-11C194.4,72.8,195.8,79,200.3,86.7"/>
				<path fill="#FFFFFF" d="M191.7,105.4c0,8.4,1.6,12.1,2.3,18.3c16.3-5.4,24.9-24.1,24.9-33.3c-5.1,11.3-12.3,11.2-21.9,27.1
					c-0.8-6.1,1.6-1.5,1.9-12.9c-0.3-12-2.8-12.4-3.2-19.8C192.8,88.1,191.7,101.3,191.7,105.4"/>
				<path fill="#FFFFFF" d="M178,129.3c-1.2,6.2-1.7,13.5-2.6,18.9c9.2-3.4,11.6-0.8,22.7-7.9c5.1-2.8,14.3-14.3,13.8-22.6
					c-11,12.3-13.1,10.9-18.3,15.4c-5,4-9.1,9.9-12.7,9.1c-0.3-3.3,8.1-10.5,7.2-31.1C185.7,113.4,179.7,122.8,178,129.3"/>
				<path fill="#FFFFFF" d="M159.4,144.7c-2.8,4.1-2.1,5.9-9.6,14.5c1.9,0.8,12.4,3.6,19.6,3.9c4.5,0,21.1-4.4,26.6-15.7
					c-9.5,5.1-9.6,3.9-22.3,6.6c-9.1,2.1-15.4,5-18,4.7c0.5-1.2,7.7-4.1,12.4-10.2c4.8-6.5,3.7-13.8,8.1-19.2
					C173.1,128.4,161.8,141.7,159.4,144.7"/>
				<path fill="#FFFFFF" d="M87.8,183.5l-2.8-1.4c0,0,17.5-21.4,47.5-19.7c30,1.7,28,8.7,44.1,7.6c1.8-0.1-1.4,2.2-1.4,2.2
					s-15.7,6-35.1-0.6C120.9,165.1,108.3,161.1,87.8,183.5"/>
				<path fill="#FFFFFF" d="M135.3,183.5l2.8-1.4c0,0-17.4-21.4-47.4-19.7c-30.2,1.7-28.1,8.7-44.2,7.6c-1.8-0.1,1.4,2.2,1.4,2.2
					s15.7,6,35.1-0.6C102.4,165.1,114.9,161.1,135.3,183.5"/>

			<path fill="#FFFFFF" d="M348.2,90.6c0,28.8-15.5,42.6-47.2,42.6c-31.7,0-47.4-13.8-47.4-42.6V27h32v56.5c0,10.6,0,23.8,15.5,23.8
				c15.1,0,15.1-13.2,15.1-23.8V27h32V90.6"/>
			<polygon fill="#FFFFFF" points="367.4,27 400.1,27 430.3,82.5 430.6,82.5 430.6,27 460.8,27 460.8,130.7 429.7,130.7 397.9,74.1 
				397.6,74.1 397.6,130.7 367.4,130.7 			"/>
			<polygon fill="#FFFFFF" points="480.4,27 512.4,27 512.4,63 542.3,63 542.3,27 574.3,27 574.3,130.7 542.3,130.7 542.3,89.6 
				512.4,89.6 512.4,130.7 480.4,130.7 			"/>
			<path fill="#FFFFFF" d="M656.1,65.7c-0.6-3.8-3.5-15.3-16.7-15.3c-15,0-19.8,14.5-19.8,28.5c0,13.9,4.8,28.5,19.8,28.5
				c10.8,0,15-7.6,16.9-17.3h31.4c0,20.9-17,43.2-47.4,43.2c-33.6,0-52.6-23.7-52.6-54.4c0-32.7,20.6-54.3,52.6-54.3
				c28.5,0.1,44.2,15.1,46.9,41.1H656.1"/>
			<path fill="#FFFFFF" d="M733,51.7h15c12.2,0,15.8,3.8,15.8,10.3c0,9.3-8.2,10.3-14.1,10.3H733V51.7z M701,130.7h32V94.6h17
				c12.6,0,13.5,10.3,14.4,20.2c0.4,5.4,1,10.8,2.6,16h32c-2.9-4.8-3-17.1-3.5-22.2c-1.2-12.9-6.5-22.5-15.3-25.9
				c10.6-3.9,15.6-15.3,15.6-26c0-19.6-15.7-29.6-33.9-29.6H701V130.7"/>
			<polygon fill="#FFFFFF" points="264,154.6 253.6,154.6 253.6,148.2 282,148.2 282,154.6 271.6,154.6 271.6,182.9 264,182.9 			
				"/>
			<path fill="#FFFFFF" d="M284.4,148.2h6.9v13.1h0.1c1.8-2.8,4.8-4.2,7.4-4.2c7.3,0,9.2,4.1,9.2,10.4v15.5h-6.9v-14.2
				c0-4.1-1.2-6.2-4.4-6.2c-3.8,0-5.4,2.1-5.4,7.2v13.2h-6.9V148.2"/>
			<path fill="#FFFFFF" d="M317.9,172c0.2,4.4,2.3,6.4,6.2,6.4c2.8,0,5-1.7,5.5-3.3h6.1c-2,6-6.1,8.5-11.8,8.5
				c-7.9,0-12.9-5.5-12.9-13.2c0-7.5,5.2-13.3,12.9-13.3c8.6,0,12.7,7.2,12.2,14.9H317.9z M329.2,167.6c-0.6-3.5-2.1-5.4-5.5-5.4
				c-4.4,0-5.6,3.4-5.7,5.4H329.2"/>
			<path fill="#FFFFFF" d="M381,169.8c0,9.4-5.6,14-14.9,14c-9.3,0-14.8-4.5-14.8-14v-21.6h7.6v21.6c0,3.8,1,7.5,7.2,7.5
				c5.5,0,7.2-2.4,7.2-7.5v-21.6h7.6V169.8"/>
			<polygon fill="#FFFFFF" points="386.1,148.2 393.7,148.2 408.2,171.5 408.3,171.5 408.3,148.2 415.5,148.2 415.5,182.9 
				407.8,182.9 393.4,159.7 393.3,159.7 393.3,182.9 386.1,182.9 			"/>
			<path fill="#FFFFFF" d="M439.8,154.1h8.4c3.4,0,5.3,1.5,5.3,4.8c0,3.5-1.9,5-5.3,5h-8.4V154.1z M432.1,182.9h7.6v-13.6h7.6
				c3.8,0,5.3,1.6,5.8,5.3c0.4,2.8,0.3,6.1,1.2,8.3h7.6c-1.4-2-1.3-6-1.5-8.2c-0.2-3.5-1.3-7.2-5.1-8.1v-0.1
				c3.8-1.6,5.5-4.6,5.5-8.7c0-5.3-3.9-9.6-10.2-9.6h-18.7V182.9"/>
			<path fill="#FFFFFF" d="M471.4,167.6c0.1-1.9,1.4-5.4,5.8-5.4c3.4,0,4.9,1.8,5.5,5.4H471.4z M489.5,172
				c0.5-7.7-3.7-14.9-12.2-14.9c-7.6,0-12.9,5.7-12.9,13.3c0,7.8,4.9,13.3,12.9,13.3c5.7,0,9.8-2.5,11.8-8.5H483
				c-0.4,1.6-2.7,3.3-5.4,3.3c-3.9,0-6-2-6.2-6.4H489.5"/>
			<path fill="#FFFFFF" d="M494.1,162.4h-4.1v-4.6h4.1v-1.9c0-4.4,2.8-7.6,8.4-7.6c1.2,0,2.5,0.1,3.6,0.2v5.2
				c-0.8-0.1-1.6-0.1-2.5-0.1c-1.8,0-2.6,0.8-2.6,2.9v1.5h4.8v4.6H501v20.6h-6.9V162.4"/>
			<path fill="#FFFFFF" d="M531.5,182.9H525v-3.5h-0.2c-1.8,2.8-4.8,4.2-7.7,4.2c-7.4,0-9.2-4.1-9.2-10.4v-15.5h6.9V172
				c0,4.1,1.2,6.2,4.4,6.2c3.7,0,5.4-2.1,5.4-7.2v-13.2h6.9V182.9"/>
			<path fill="#FFFFFF" d="M547.5,177c-4.2,0-5.6-3.9-5.6-7.5c0-3.7,1.7-7.2,5.6-7.2c4.5,0,5.9,3.7,5.9,7.7
				C553.3,173.6,551.4,177,547.5,177 M559.9,157.8h-6.6v3.4h-0.1c-1.7-2.9-4.2-4-7.5-4c-7.1,0-10.8,5.9-10.8,12.5
				c0,6.9,3.2,12.7,10.8,12.7c3,0,6-1.3,7.5-3.9h0.1v3.3c0.1,3.6-1.7,6.2-5.5,6.2c-2.4,0-4.5-0.9-5.2-3.5h-6.9
				c0.3,5.7,6.1,8.1,11.1,8.1c11.6,0,13.1-7,13.1-11.2V157.8"/>
			<path fill="#FFFFFF" d="M570.3,167.6c0.1-1.9,1.4-5.4,5.7-5.4c3.4,0,4.9,1.8,5.5,5.4H570.3z M588.5,172
				c0.5-7.7-3.7-14.9-12.2-14.9c-7.6,0-12.9,5.7-12.9,13.3c0,7.8,4.9,13.3,12.9,13.3c5.7,0,9.8-2.5,11.8-8.5h-6.1
				c-0.4,1.6-2.7,3.3-5.5,3.3c-3.8,0-6-2-6.2-6.4H588.5"/>
			<path fill="#FFFFFF" d="M597.4,167.6c0.1-1.9,1.4-5.4,5.8-5.4c3.4,0,4.9,1.8,5.5,5.4H597.4z M615.5,172
				c0.5-7.7-3.7-14.9-12.2-14.9c-7.6,0-12.9,5.7-12.9,13.3c0,7.8,4.9,13.3,12.9,13.3c5.7,0,9.8-2.5,11.8-8.5H609
				c-0.4,1.6-2.7,3.3-5.5,3.3c-3.8,0-6-2-6.2-6.4H615.5"/>
			<path fill="#FFFFFF" d="M647.2,156.7L647.2,156.7l4.5,12.8h-9L647.2,156.7z M630.2,182.9h7.7l2.7-7.7h13l2.6,7.7h7.9l-13-34.8
				h-7.8L630.2,182.9z"/>
			<path fill="#FFFFFF" d="M677.2,177c-4.2,0-5.6-3.9-5.6-7.5c0-3.7,1.7-7.2,5.6-7.2c4.5,0,5.9,3.7,5.9,7.7
				C683.1,173.6,681.1,177,677.2,177 M689.6,157.8h-6.6v3.4H683c-1.7-2.9-4.2-4-7.5-4c-7.1,0-10.8,5.9-10.8,12.5
				c0,6.9,3.2,12.7,10.8,12.7c3,0,6-1.3,7.6-3.9h0.1v3.3c0,3.6-1.7,6.2-5.6,6.2c-2.4,0-4.5-0.9-5.2-3.5h-6.9
				c0.4,5.7,6.1,8.1,11.1,8.1c11.6,0,13.1-7,13.1-11.2V157.8"/>
			<path fill="#FFFFFF" d="M700,167.6c0.1-1.9,1.4-5.4,5.7-5.4c3.4,0,4.9,1.8,5.5,5.4H700z M718.2,172c0.5-7.7-3.6-14.9-12.2-14.9
				c-7.6,0-12.9,5.7-12.9,13.3c0,7.8,4.9,13.3,12.9,13.3c5.7,0,9.8-2.5,11.8-8.5h-6.1c-0.4,1.6-2.7,3.3-5.5,3.3c-3.8,0-6-2-6.2-6.4
				H718.2"/>
			<path fill="#FFFFFF" d="M721.2,157.8h6.6v3.5h0.2c1.7-2.8,4.8-4.2,7.7-4.2c7.3,0,9.2,4.1,9.2,10.4v15.5h-6.9v-14.2
				c0-4.1-1.2-6.2-4.4-6.2c-3.7,0-5.4,2.1-5.4,7.2v13.2h-6.9V157.8"/>
			<path fill="#FFFFFF" d="M766.1,166.6c-0.4-2.8-2.2-4.3-5.1-4.3c-4.4,0-5.9,4.5-5.9,8.2c0,3.6,1.4,7.9,5.7,7.9
				c3.2,0,5.1-2,5.5-5.1h6.7c-0.9,6.7-5.5,10.3-12.1,10.3c-7.6,0-12.7-5.4-12.7-12.9c0-7.8,4.7-13.6,12.8-13.6
				c5.9,0,11.4,3.1,11.8,9.5H766.1"/>
			<path fill="#FFFFFF" d="M788.5,186.1c-1.5,4-3.9,5.7-8.7,5.7c-1.4,0-2.8-0.1-4.2-0.2v-5.7c1.3,0.1,2.7,0.3,4,0.2
				c2.4-0.2,3.2-2.7,2.4-4.7l-8.9-23.6h7.4l5.7,17.2h0.1l5.5-17.2h7.2L788.5,186.1"/>
		</g>
</svg>
